<svg xmlns="http://www.w3.org/2000/svg" version="1.1" xmlns:xlink="http://www.w3.org/1999/xlink" xmlns:svgjs="http://svgjs.dev/svgjs" width="1000" height="247" viewBox="0 0 1000 247"><g transform="matrix(1,0,0,1,-0.6060606060606233,-0.11438747292103812)"><svg viewBox="0 0 396 98" data-background-color="#ffffff" preserveAspectRatio="xMidYMid meet" height="247" width="1000" xmlns="http://www.w3.org/2000/svg" xmlns:xlink="http://www.w3.org/1999/xlink"><g id="tight-bounds" transform="matrix(1,0,0,1,0.2400000000000091,0.04538450342616329)"><svg viewBox="0 0 395.52 97.90923099314769" height="97.90923099314769" width="395.52"><g><svg viewBox="0 0 395.52 97.90923099314769" height="97.90923099314769" width="395.52"><g transform="matrix(1,0,0,1,0,71.00462952339076)"><svg viewBox="0 0 395.52 26.904601469756923" height="26.904601469756923" width="395.52"><g id="textblocktransform"><svg viewBox="0 0 395.52 26.904601469756923" height="26.904601469756923" width="395.52" id="textblock"><g><svg viewBox="0 0 395.52 26.904601469756923" height="26.904601469756923" width="395.52"><g transform="matrix(1,0,0,1,0,0)"><svg width="395.52" viewBox="4 -35.75 530.66 36.1" height="26.904601469756923" data-palette-color="#755bb4"><path d="M9.6 0L4 0 4-35.5 19.45-35.5Q21.85-35.5 23.85-34.5 25.85-33.5 27.33-31.85 28.8-30.2 29.63-28.15 30.45-26.1 30.45-23.95L30.45-23.95Q30.45-21.6 29.6-19.45 28.75-17.3 27.18-15.75 25.6-14.2 23.5-13.5L23.5-13.5 31.85 0 25.55 0 17.85-12.35 9.6-12.35 9.6 0ZM9.6-30.55L9.6-17.3 19.4-17.3Q20.95-17.3 22.15-18.2 23.35-19.1 24.05-20.63 24.75-22.15 24.75-23.95L24.75-23.95Q24.75-25.8 23.95-27.28 23.15-28.75 21.88-29.65 20.6-30.55 19.1-30.55L19.1-30.55 9.6-30.55ZM51.7 0.25L51.7 0.25Q47.85 0.25 44.75-1.25 41.65-2.75 39.4-5.33 37.15-7.9 35.92-11.13 34.7-14.35 34.7-17.75L34.7-17.75Q34.7-21.3 36-24.53 37.3-27.75 39.6-30.28 41.9-32.8 45.02-34.27 48.15-35.75 51.8-35.75L51.8-35.75Q55.6-35.75 58.72-34.2 61.85-32.65 64.07-30.05 66.3-27.45 67.52-24.25 68.75-21.05 68.75-17.7L68.75-17.7Q68.75-14.15 67.47-10.93 66.2-7.7 63.9-5.18 61.6-2.65 58.47-1.2 55.35 0.25 51.7 0.25ZM40.4-17.75L40.4-17.75Q40.4-15.25 41.2-12.9 42-10.55 43.47-8.72 44.95-6.9 47.05-5.85 49.15-4.8 51.75-4.8L51.75-4.8Q54.45-4.8 56.55-5.9 58.65-7 60.07-8.88 61.5-10.75 62.25-13.08 63-15.4 63-17.75L63-17.75Q63-20.25 62.22-22.58 61.45-24.9 59.95-26.73 58.45-28.55 56.37-29.6 54.3-30.65 51.75-30.65L51.75-30.65Q49.05-30.65 46.95-29.55 44.85-28.45 43.4-26.6 41.95-24.75 41.17-22.45 40.4-20.15 40.4-17.75ZM72.3-18L72.3-18Q72.3-21.25 73.45-24.38 74.6-27.5 76.82-30.08 79.05-32.65 82.25-34.18 85.45-35.7 89.5-35.7L89.5-35.7Q94.3-35.7 97.8-33.52 101.3-31.35 103-27.95L103-27.95 98.6-25Q97.6-27.15 96.07-28.4 94.55-29.65 92.77-30.15 91-30.65 89.3-30.65L89.3-30.65Q86.5-30.65 84.4-29.53 82.3-28.4 80.87-26.55 79.45-24.7 78.72-22.4 78-20.1 78-17.8L78-17.8Q78-15.25 78.85-12.88 79.7-10.5 81.22-8.68 82.75-6.85 84.85-5.8 86.95-4.75 89.45-4.75L89.45-4.75Q91.15-4.75 93-5.35 94.85-5.95 96.42-7.23 98-8.5 98.9-10.6L98.9-10.6 103.55-7.95Q102.45-5.3 100.12-3.45 97.8-1.6 94.92-0.65 92.05 0.3 89.25 0.3L89.25 0.3Q85.5 0.3 82.4-1.28 79.3-2.85 77.05-5.48 74.8-8.1 73.55-11.38 72.3-14.65 72.3-18ZM114.34 0L108.74 0 108.74-35.45 114.34-35.45 114.34-17.2 131.04-35.5 137.24-35.5 123.24-19.8 138.04 0 131.69 0 119.69-16.25 114.34-10.7 114.34 0ZM147.34-4.95L166.09-4.95 166.09 0 141.74 0 141.74-35.5 165.64-35.5 165.64-30.55 147.34-30.55 147.34-20.45 163.19-20.45 163.19-15.8 147.34-15.8 147.34-4.95ZM197.94-35.5L197.94-30.55 186.14-30.55 186.14 0 180.49 0 180.49-30.55 168.64-30.55 168.64-35.5 197.94-35.5ZM213.74-11.2L198.79-11.2 198.79-16.15 213.74-16.15 213.74-11.2ZM244.33-31.75L241.78-27.15Q241.28-27.7 240.33-28.33 239.38-28.95 238.08-29.5 236.78-30.05 235.28-30.4 233.78-30.75 232.18-30.75L232.18-30.75Q228.68-30.75 226.98-29.45 225.28-28.15 225.28-25.85L225.28-25.85Q225.28-24.15 226.23-23.18 227.18-22.2 229.13-21.55 231.08-20.9 234.03-20.15L234.03-20.15Q237.63-19.3 240.28-18.13 242.93-16.95 244.33-15 245.73-13.05 245.73-9.85L245.73-9.85Q245.73-7.15 244.73-5.2 243.73-3.25 241.93-2.02 240.13-0.8 237.78-0.23 235.43 0.35 232.73 0.35L232.73 0.35Q230.08 0.35 227.46-0.2 224.83-0.75 222.46-1.83 220.08-2.9 218.08-4.45L218.08-4.45 220.63-9.25Q221.28-8.6 222.51-7.83 223.73-7.05 225.36-6.35 226.98-5.65 228.91-5.18 230.83-4.7 232.83-4.7L232.83-4.7Q236.18-4.7 237.96-5.88 239.73-7.05 239.73-9.25L239.73-9.25Q239.73-11.05 238.58-12.13 237.43-13.2 235.23-13.95 233.03-14.7 229.98-15.45L229.98-15.45Q226.48-16.4 224.13-17.53 221.78-18.65 220.61-20.43 219.43-22.2 219.43-24.95L219.43-24.95Q219.43-28.45 221.13-30.88 222.83-33.3 225.76-34.52 228.68-35.75 232.33-35.75L232.33-35.75Q234.73-35.75 236.88-35.23 239.03-34.7 240.91-33.8 242.78-32.9 244.33-31.75L244.33-31.75ZM286.83 0L281.18 0 281.18-25.3 270.73-6.1 267.43-6.1 256.93-25.3 256.93 0 251.33 0 251.33-35.5 257.33-35.5 269.08-13.8 280.83-35.5 286.83-35.5 286.83 0ZM291.18 0L305.08-35.5 310.38-35.5 324.18 0 318.28 0 314.53-9.65 300.83-9.65 297.13 0 291.18 0ZM301.83-13.8L313.43-13.8 307.73-29.35 301.83-13.8ZM334.18 0L328.58 0 328.58-35.5 344.03-35.5Q346.43-35.5 348.43-34.5 350.43-33.5 351.9-31.85 353.38-30.2 354.2-28.15 355.03-26.1 355.03-23.95L355.03-23.95Q355.03-21.6 354.18-19.45 353.33-17.3 351.75-15.75 350.18-14.2 348.08-13.5L348.08-13.5 356.43 0 350.13 0 342.43-12.35 334.18-12.35 334.18 0ZM334.18-30.55L334.18-17.3 343.98-17.3Q345.53-17.3 346.73-18.2 347.93-19.1 348.63-20.63 349.33-22.15 349.33-23.95L349.33-23.95Q349.33-25.8 348.53-27.28 347.73-28.75 346.45-29.65 345.18-30.55 343.68-30.55L343.68-30.55 334.18-30.55ZM387.32-35.5L387.32-30.55 375.52-30.55 375.52 0 369.87 0 369.87-30.55 358.02-30.55 358.02-35.5 387.32-35.5ZM415.57-35.5L421.22-35.5 421.22 0 415.57 0 415.57-15.65 397.67-15.65 397.67 0 392.07 0 392.07-35.5 397.67-35.5 397.67-20.65 415.57-20.65 415.57-35.5ZM443.97 0.25L443.97 0.25Q440.12 0.25 437.02-1.25 433.92-2.75 431.67-5.33 429.42-7.9 428.19-11.13 426.97-14.35 426.97-17.75L426.97-17.75Q426.97-21.3 428.27-24.53 429.57-27.75 431.87-30.28 434.17-32.8 437.29-34.27 440.42-35.75 444.07-35.75L444.07-35.75Q447.87-35.75 450.99-34.2 454.12-32.65 456.34-30.05 458.57-27.45 459.79-24.25 461.02-21.05 461.02-17.7L461.02-17.7Q461.02-14.15 459.74-10.93 458.47-7.7 456.17-5.18 453.87-2.65 450.74-1.2 447.62 0.25 443.97 0.25ZM432.67-17.75L432.67-17.75Q432.67-15.25 433.47-12.9 434.27-10.55 435.74-8.72 437.22-6.9 439.32-5.85 441.42-4.8 444.02-4.8L444.02-4.8Q446.72-4.8 448.82-5.9 450.92-7 452.34-8.88 453.77-10.75 454.52-13.08 455.27-15.4 455.27-17.75L455.27-17.75Q455.27-20.25 454.49-22.58 453.72-24.9 452.22-26.73 450.72-28.55 448.64-29.6 446.57-30.65 444.02-30.65L444.02-30.65Q441.32-30.65 439.22-29.55 437.12-28.45 435.67-26.6 434.22-24.75 433.44-22.45 432.67-20.15 432.67-17.75ZM502.32 0L496.67 0 496.67-25.3 486.22-6.1 482.92-6.1 472.42-25.3 472.42 0 466.82 0 466.82-35.5 472.82-35.5 484.57-13.8 496.32-35.5 502.32-35.5 502.32 0ZM515.91-4.95L534.66-4.95 534.66 0 510.31 0 510.31-35.5 534.21-35.5 534.21-30.55 515.91-30.55 515.91-20.45 531.76-20.45 531.76-15.8 515.91-15.8 515.91-4.95Z" opacity="1" transform="matrix(1,0,0,1,0,0)" fill="#755bb4" class="wordmark-text-0" data-fill-palette-color="primary" id="text-0"></path></svg></g></svg></g></svg></g></svg></g><g transform="matrix(1,0,0,1,168.60921593487893,0)"><svg viewBox="0 0 58.30156813024209 58.30156813024209" height="58.30156813024209" width="58.30156813024209"><g><svg></svg></g><g id="icon-0"><svg viewBox="0 0 58.30156813024209 58.30156813024209" height="58.30156813024209" width="58.30156813024209"><g><path d="M0 29.151c0-16.1 13.051-29.151 29.151-29.151 16.1 0 29.151 13.051 29.151 29.151 0 16.1-13.051 29.151-29.151 29.151-16.1 0-29.151-13.051-29.151-29.151zM29.151 55.875c14.76 0 26.724-11.965 26.724-26.724 0-14.76-11.965-26.724-26.724-26.725-14.76 0-26.724 11.965-26.725 26.725 0 14.76 11.965 26.724 26.725 26.724z" data-fill-palette-color="accent" fill="#755bb4" stroke="transparent"></path><ellipse rx="28.859276224469834" ry="28.859276224469834" cx="29.150784065121044" cy="29.150784065121044" fill="#755bb4" stroke="transparent" stroke-width="0" fill-opacity="1" data-fill-palette-color="accent"></ellipse></g><g transform="matrix(1,0,0,1,20.621971736905607,18.89566296821028)"><svg viewBox="0 0 17.05762465643087 20.510242193821522" height="20.510242193821522" width="17.05762465643087"><g><svg xmlns="http://www.w3.org/2000/svg" xmlns:xlink="http://www.w3.org/1999/xlink" version="1.1" x="0" y="0" viewBox="9.639999999999986 1 81.36000000000001 97.828" enable-background="new 0 0 100 100" xml:space="preserve" height="20.510242193821522" width="17.05762465643087" class="icon-z$-0" data-fill-palette-color="quaternary" id="z$-0"><g fill="#ffffff" data-fill-palette-color="quaternary"><g fill="#ffffff" data-fill-palette-color="quaternary"><path fill="#ffffff" d="M71.15 55.636c8.644-9.455 13.473-18.541 16.13-26.462 0 0.024 0 0.024 0.008 0.04 0 0 1.069-2.789 1.908-7.179 0.062-0.292 0.104-0.559 0.159-0.854 0.063-0.368 0.128-0.747 0.184-1.133 1.029-6.393 0.687-11.445 0.239-14.422 0.143-0.135 0.295-0.303 0.438-0.495 0.527-0.663 0.752-1.349 0.52-1.532l-0.28-0.212L91 1l-2.587 0.818L88.07 1.562c-0.239-0.175-0.846 0.224-1.364 0.886-0.104 0.143-0.2 0.28-0.28 0.415 0 0-9.473 0.295-20.432 7.255h0.017c-15.324 9.45-22.571 24.31-22.571 24.31-27.639-3.71-33.8 22.021-33.8 22.021 53.873-3.16 46.729 37.543 46.729 37.543C79.945 83.649 71.15 55.636 71.15 55.636zM69.371 41.524c-2.443 2.69-6.561 3.396-9.889 1.477-3.815-2.195-5.148-6.991-2.978-10.71 0.264-0.463 0.575-0.874 0.918-1.253 2.434-2.69 6.552-3.393 9.888-1.477 3.808 2.187 5.149 6.987 2.979 10.711C70.017 40.734 69.705 41.149 69.371 41.524z" data-fill-palette-color="quaternary"></path><path fill="#ffffff" d="M30.949 97.333c13.296-4.829 18.133-22.384 18.133-22.384C34.956 81.278 30.949 97.333 30.949 97.333z" data-fill-palette-color="quaternary"></path><path fill="#ffffff" d="M16.806 98.828c17.623-6.504 23.952-30.4 23.952-30.4C22.051 76.96 16.806 98.828 16.806 98.828z" data-fill-palette-color="quaternary"></path><path fill="#ffffff" d="M14.292 84.28c13.297-4.821 18.134-22.372 18.134-22.372C18.307 68.226 14.292 84.28 14.292 84.28z" data-fill-palette-color="quaternary"></path></g></g></svg></g></svg></g></svg></g></svg></g><g></g></svg></g><defs></defs></svg><rect width="395.52" height="97.90923099314769" fill="none" stroke="none" visibility="hidden"></rect></g></svg></g></svg>